<svg xmlns="http://www.w3.org/2000/svg" width="1200" height="720" viewBox="0 0 1200 720" role="img" aria-label="Competitor monitoring dashboard">
  <rect width="1200" height="720" rx="36" fill="#fff7ed"/>
  <rect x="88" y="78" width="1024" height="564" rx="32" fill="#ffffff" stroke="#fed7aa" stroke-width="2"/>
  <rect x="132" y="126" width="250" height="22" rx="11" fill="#f97316"/>
  <rect x="132" y="186" width="330" height="430" rx="24" fill="#f9fafb"/>
  <rect x="506" y="186" width="462" height="114" rx="24" fill="#fff7ed"/>
  <rect x="506" y="330" width="462" height="114" rx="24" fill="#f9fafb"/>
  <rect x="506" y="474" width="462" height="114" rx="24" fill="#fff7ed"/>
  <circle cx="170" cy="238" r="22" fill="#f97316"/>
  <rect x="208" y="226" width="210" height="14" rx="7" fill="#374151"/>
  <rect x="208" y="250" width="162" height="12" rx="6" fill="#9ca3af"/>
  <circle cx="170" cy="318" r="22" fill="#fb923c"/>
  <rect x="208" y="306" width="236" height="14" rx="7" fill="#374151"/>
  <rect x="208" y="330" width="132" height="12" rx="6" fill="#9ca3af"/>
  <circle cx="170" cy="398" r="22" fill="#fdba74"/>
  <rect x="208" y="386" width="180" height="14" rx="7" fill="#374151"/>
  <rect x="208" y="410" width="154" height="12" rx="6" fill="#9ca3af"/>
  <rect x="548" y="224" width="250" height="14" rx="7" fill="#ea580c"/>
  <rect x="548" y="250" width="350" height="12" rx="6" fill="#fdba74"/>
  <rect x="548" y="368" width="310" height="14" rx="7" fill="#374151"/>
  <rect x="548" y="394" width="300" height="12" rx="6" fill="#d1d5db"/>
  <rect x="548" y="512" width="230" height="14" rx="7" fill="#ea580c"/>
  <rect x="548" y="538" width="320" height="12" rx="6" fill="#fdba74"/>
</svg>
